<svg width="40" height="40" viewBox="0 0 40 40" fill="none" xmlns="http://www.w3.org/2000/svg">
<g clip-path="url(#clip0_1_277)">
<path d="M39.75 19.875C39.75 8.89833 30.8517 0 19.875 0C8.89833 0 0 8.89833 0 19.875C0 29.795 7.26796 38.0175 16.7695 39.5085V25.6201H11.7231V19.875H16.7695V15.4963C16.7695 10.5151 19.7368 7.76367 24.2766 7.76367C26.4504 7.76367 28.7256 8.15185 28.7256 8.15185V13.043H26.2195C23.7506 13.043 22.9805 14.5751 22.9805 16.1484V19.875H28.4927L27.6115 25.6201H22.9805V39.5085C32.482 38.0175 39.75 29.795 39.75 19.875Z" fill="white"/>
</g>
<defs>
<clipPath id="clip0_1_277">
<rect width="39.75" height="39.75" fill="white"/>
</clipPath>
</defs>
</svg>
