<svg width="44" height="44" viewBox="0 0 44 44" fill="none" xmlns="http://www.w3.org/2000/svg">
<g clip-path="url(#clip0_1_226)">
<path d="M43.3509 21.704C43.3509 9.88643 33.7709 0.306396 21.9533 0.306396C10.1357 0.306396 0.555664 9.88643 0.555664 21.704C0.555664 32.384 8.38042 41.2364 18.6099 42.8417V27.8893H13.1769V21.704H18.6099V16.9899C18.6099 11.6271 21.8045 8.66484 26.6921 8.66484C29.0325 8.66484 31.4819 9.08276 31.4819 9.08276V14.3486H28.7838C26.1258 14.3486 25.2967 15.9981 25.2967 17.692V21.704H31.2312L30.2825 27.8893H25.2967V42.8417C35.5261 41.2364 43.3509 32.384 43.3509 21.704Z" fill="#DC04B9"/>
</g>
<defs>
<clipPath id="clip0_1_226">
<rect width="42.7952" height="42.7952" fill="white" transform="translate(0.555664 0.306396)"/>
</clipPath>
</defs>
</svg>
