<svg width="41" height="40" viewBox="0 0 41 40" fill="none" xmlns="http://www.w3.org/2000/svg">
<g clip-path="url(#clip0_1_278)">
<path fill-rule="evenodd" clip-rule="evenodd" d="M28.4714 11.095C26.4193 9.13782 23.6807 8.07159 20.8471 8.1154C15.6621 8.1154 11.2584 11.6135 9.68825 16.3239C8.85571 18.7923 8.85571 21.4652 9.68824 23.9336H9.69553C11.273 28.6367 15.6694 32.1349 20.8545 32.1349C23.531 32.1349 25.8288 31.4502 27.6097 30.241V30.2361C29.7057 28.8486 31.1371 26.665 31.5825 24.1966H20.8472V16.5431H39.5939C39.8276 17.8722 39.9371 19.2306 39.9371 20.5816C39.9371 26.6267 37.7767 31.7375 34.0178 35.1991L34.0217 35.2021C30.7281 38.2401 26.2075 40.0001 20.8472 40.0001C13.3324 40.0001 6.46032 35.7644 3.08635 29.053C0.267433 23.437 0.267439 16.8206 3.08637 11.2046C6.46034 4.48588 13.3324 0.250119 20.8471 0.250119C25.7839 0.191695 30.5528 2.04665 34.1458 5.42061L28.4714 11.095Z" fill="white"/>
</g>
<defs>
<clipPath id="clip0_1_278">
<rect width="39.75" height="39.75" fill="white" transform="translate(0.574707 0.25)"/>
</clipPath>
</defs>
</svg>
