<svg width="41" height="40" viewBox="0 0 41 40" fill="none" xmlns="http://www.w3.org/2000/svg">
<g clip-path="url(#clip0_1_280)">
<path d="M37.3828 0.25H3.50986C1.88726 0.25 0.575195 1.53101 0.575195 3.11479V37.1274C0.575195 38.7112 1.88726 40 3.50986 40H37.3828C39.0054 40 40.3252 38.7112 40.3252 37.1352V3.11479C40.3252 1.53101 39.0054 0.25 37.3828 0.25ZM12.3682 34.1229H6.46782V15.1485H12.3682V34.1229ZM9.41802 12.5632C7.52368 12.5632 5.99424 11.0337 5.99424 9.14717C5.99424 7.2606 7.52368 5.73115 9.41802 5.73115C11.3046 5.73115 12.834 7.2606 12.834 9.14717C12.834 11.026 11.3046 12.5632 9.41802 12.5632ZM34.4481 34.1229H28.5555V24.8997C28.5555 22.7025 28.5166 19.8688 25.4888 19.8688C22.4222 19.8688 21.9563 22.2678 21.9563 24.7444V34.1229H16.0715V15.1485H21.7234V17.7416H21.8011C22.5852 16.2509 24.5106 14.6749 27.3754 14.6749C33.3457 14.6749 34.4481 18.6033 34.4481 23.7118V34.1229Z" fill="white"/>
</g>
<defs>
<clipPath id="clip0_1_280">
<rect width="39.75" height="39.75" fill="white" transform="translate(0.575195 0.25)"/>
</clipPath>
</defs>
</svg>
