<svg width="44" height="44" viewBox="0 0 44 44" fill="none" xmlns="http://www.w3.org/2000/svg">
<g clip-path="url(#clip0_1_224)">
<path d="M40.4057 0.306396H3.93781C2.1909 0.306396 0.77832 1.68554 0.77832 3.39066V40.009C0.77832 41.7141 2.1909 43.1016 3.93781 43.1016H40.4057C42.1526 43.1016 43.5736 41.7141 43.5736 40.0174V3.39066C43.5736 1.68554 42.1526 0.306396 40.4057 0.306396ZM13.4748 36.7743H7.12238V16.3462H13.4748V36.7743ZM10.2986 13.5629C8.25913 13.5629 6.61251 11.9163 6.61251 9.88517C6.61251 7.85407 8.25913 6.20746 10.2986 6.20746C12.3297 6.20746 13.9763 7.85407 13.9763 9.88517C13.9763 11.9079 12.3297 13.5629 10.2986 13.5629ZM37.2462 36.7743H30.9021V26.8445C30.9021 24.479 30.8604 21.4282 27.6006 21.4282C24.299 21.4282 23.7975 24.0109 23.7975 26.6773V36.7743H17.4618V16.3462H23.5467V19.138H23.6303C24.4745 17.5331 26.5474 15.8364 29.6317 15.8364C36.0593 15.8364 37.2462 20.0658 37.2462 25.5656V36.7743V36.7743Z" fill="#DC04B9"/>
</g>
<defs>
<clipPath id="clip0_1_224">
<rect width="42.7952" height="42.7952" fill="white" transform="translate(0.77832 0.306396)"/>
</clipPath>
</defs>
</svg>
