<svg width="50" height="50" viewBox="0 0 50 50" fill="none" xmlns="http://www.w3.org/2000/svg">
<path d="M31.6554 32.962C35.2564 33.6977 38.9941 33.3589 42.4041 31.9876C41.0082 35.4612 38.6048 38.4376 35.5031 40.5339C32.4015 42.6301 28.7435 43.7502 24.9999 43.7501C20.6465 43.7454 16.4304 42.2265 13.0742 39.4538C9.718 36.6811 7.43082 32.8273 6.60473 28.553C5.77864 24.2787 6.4651 19.8502 8.54643 16.0266C10.6277 12.203 13.9743 9.22247 18.0124 7.59595C16.6412 11.0059 16.3023 14.7437 17.038 18.3446C17.7737 21.9456 19.5514 25.2509 22.1503 27.8498C24.7491 30.4486 28.0545 32.2264 31.6554 32.962Z" stroke="white" stroke-width="2" stroke-linecap="round" stroke-linejoin="round"/>
</svg>
