<svg width="50" height="47" viewBox="0 0 50 47" fill="none" xmlns="http://www.w3.org/2000/svg">
<path d="M32.2917 27.2302H30.6458L30.0625 26.705C32.1042 24.4877 33.3333 21.6091 33.3333 18.4776C33.3333 11.495 27.2708 5.83496 19.7917 5.83496C12.3125 5.83496 6.25 11.495 6.25 18.4776C6.25 25.4602 12.3125 31.1202 19.7917 31.1202C23.1458 31.1202 26.2292 29.9726 28.6042 28.0665L29.1667 28.6111V30.1477L39.5833 39.8533L42.6875 36.9552L32.2917 27.2302ZM19.7917 27.2302C14.6042 27.2302 10.4167 23.3207 10.4167 18.4776C10.4167 13.6345 14.6042 9.725 19.7917 9.725C24.9792 9.725 29.1667 13.6345 29.1667 18.4776C29.1667 23.3207 24.9792 27.2302 19.7917 27.2302Z" fill="white"/>
</svg>
