<svg width="50" height="50" viewBox="0 0 50 50" fill="none" xmlns="http://www.w3.org/2000/svg">
<path fill-rule="evenodd" clip-rule="evenodd" d="M25 5C25.663 5 26.2989 5.26339 26.7678 5.73223C27.2366 6.20107 27.5 6.83696 27.5 7.5V10C27.5 10.663 27.2366 11.2989 26.7678 11.7678C26.2989 12.2366 25.663 12.5 25 12.5C24.337 12.5 23.7011 12.2366 23.2322 11.7678C22.7634 11.2989 22.5 10.663 22.5 10V7.5C22.5 6.83696 22.7634 6.20107 23.2322 5.73223C23.7011 5.26339 24.337 5 25 5ZM35 25C35 27.6522 33.9464 30.1957 32.0711 32.0711C30.1957 33.9464 27.6522 35 25 35C22.3478 35 19.8043 33.9464 17.9289 32.0711C16.0536 30.1957 15 27.6522 15 25C15 22.3478 16.0536 19.8043 17.9289 17.9289C19.8043 16.0536 22.3478 15 25 15C27.6522 15 30.1957 16.0536 32.0711 17.9289C33.9464 19.8043 35 22.3478 35 25ZM33.84 37.375L35.6075 39.1425C36.079 39.5979 36.7105 39.8499 37.366 39.8442C38.0215 39.8385 38.6485 39.5756 39.112 39.112C39.5756 38.6485 39.8385 38.0215 39.8442 37.366C39.8499 36.7105 39.5979 36.079 39.1425 35.6075L37.375 33.84C36.9035 33.3846 36.272 33.1326 35.6165 33.1383C34.961 33.144 34.334 33.4069 33.8705 33.8705C33.4069 34.334 33.144 34.961 33.1383 35.6165C33.1326 36.272 33.3846 36.9035 33.84 37.375ZM39.14 10.8575C39.6087 11.3263 39.872 11.9621 39.872 12.625C39.872 13.2879 39.6087 13.9237 39.14 14.3925L37.375 16.16C37.1444 16.3988 36.8685 16.5892 36.5635 16.7203C36.2585 16.8513 35.9305 16.9202 35.5985 16.9231C35.2666 16.926 34.9374 16.8628 34.6301 16.7371C34.3229 16.6114 34.0437 16.4257 33.809 16.191C33.5743 15.9563 33.3886 15.6771 33.2629 15.3699C33.1372 15.0626 33.074 14.7334 33.0769 14.4015C33.0798 14.0695 33.1487 13.7415 33.2797 13.4365C33.4108 13.1315 33.6012 12.8556 33.84 12.625L35.6075 10.8575C36.0763 10.3888 36.7121 10.1255 37.375 10.1255C38.0379 10.1255 38.6737 10.3888 39.1425 10.8575H39.14ZM42.5 27.5C43.163 27.5 43.7989 27.2366 44.2678 26.7678C44.7366 26.2989 45 25.663 45 25C45 24.337 44.7366 23.7011 44.2678 23.2322C43.7989 22.7634 43.163 22.5 42.5 22.5H40C39.337 22.5 38.7011 22.7634 38.2322 23.2322C37.7634 23.7011 37.5 24.337 37.5 25C37.5 25.663 37.7634 26.2989 38.2322 26.7678C38.7011 27.2366 39.337 27.5 40 27.5H42.5ZM25 37.5C25.663 37.5 26.2989 37.7634 26.7678 38.2322C27.2366 38.7011 27.5 39.337 27.5 40V42.5C27.5 43.163 27.2366 43.7989 26.7678 44.2678C26.2989 44.7366 25.663 45 25 45C24.337 45 23.7011 44.7366 23.2322 44.2678C22.7634 43.7989 22.5 43.163 22.5 42.5V40C22.5 39.337 22.7634 38.7011 23.2322 38.2322C23.7011 37.7634 24.337 37.5 25 37.5ZM12.625 16.16C12.8571 16.3923 13.1327 16.5766 13.436 16.7023C13.7394 16.8281 14.0645 16.8929 14.3929 16.893C14.7212 16.8931 15.0464 16.8286 15.3498 16.703C15.6533 16.5774 15.929 16.3934 16.1613 16.1613C16.3935 15.9291 16.5778 15.6536 16.7036 15.3502C16.8293 15.0469 16.8941 14.7218 16.8943 14.3934C16.8944 14.065 16.8298 13.7398 16.7043 13.4364C16.5787 13.133 16.3946 12.8573 16.1625 12.625L14.3925 10.8575C13.921 10.4021 13.2895 10.1501 12.634 10.1558C11.9785 10.1615 11.3515 10.4244 10.888 10.888C10.4244 11.3515 10.1615 11.9785 10.1558 12.634C10.1501 13.2895 10.4021 13.921 10.8575 14.3925L12.625 16.16ZM16.16 37.375L14.3925 39.1425C13.921 39.5979 13.2895 39.8499 12.634 39.8442C11.9785 39.8385 11.3515 39.5756 10.888 39.112C10.4244 38.6485 10.1615 38.0215 10.1558 37.366C10.1501 36.7105 10.4021 36.079 10.8575 35.6075L12.625 33.84C13.0965 33.3846 13.728 33.1326 14.3835 33.1383C15.039 33.144 15.666 33.4069 16.1295 33.8705C16.5931 34.334 16.856 34.961 16.8617 35.6165C16.8674 36.272 16.6154 36.9035 16.16 37.375ZM10 27.5C10.663 27.5 11.2989 27.2366 11.7678 26.7678C12.2366 26.2989 12.5 25.663 12.5 25C12.5 24.337 12.2366 23.7011 11.7678 23.2322C11.2989 22.7634 10.663 22.5 10 22.5H7.5C6.83696 22.5 6.20107 22.7634 5.73223 23.2322C5.26339 23.7011 5 24.337 5 25C5 25.663 5.26339 26.2989 5.73223 26.7678C6.20107 27.2366 6.83696 27.5 7.5 27.5H10Z" fill="black"/>
</svg>
