<svg width="43" height="44" viewBox="0 0 43 44" fill="none" xmlns="http://www.w3.org/2000/svg">
<g clip-path="url(#clip0_1_222)">
<path d="M13.4629 39.0896C29.6081 39.0896 38.4413 25.7103 38.4413 14.1113C38.4413 13.7351 38.433 13.3506 38.4162 12.9745C40.1346 11.7318 41.6175 10.1926 42.7952 8.42919C41.1949 9.1412 39.4958 9.60621 37.7559 9.80834C39.5879 8.71023 40.9596 6.98516 41.6167 4.95292C39.8933 5.97428 38.0085 6.69476 36.0433 7.08348C34.7191 5.6765 32.9684 4.74491 31.0616 4.43275C29.1549 4.12058 27.1985 4.44523 25.4948 5.35649C23.7911 6.26776 22.435 7.71488 21.6363 9.47413C20.8375 11.2334 20.6405 13.2068 21.0758 15.0892C17.5862 14.9141 14.1722 14.0076 11.0554 12.4284C7.93856 10.8493 5.18837 8.63272 2.98313 5.9225C1.8623 7.85493 1.51933 10.1416 2.02391 12.3178C2.52849 14.4941 3.84277 16.3965 5.69962 17.6385C4.30561 17.5943 2.94213 17.2189 1.72184 16.5436V16.6522C1.72059 18.6802 2.42167 20.646 3.70591 22.2154C4.99014 23.7849 6.77827 24.8612 8.76633 25.2614C7.475 25.6147 6.11969 25.6662 4.80527 25.4119C5.36626 27.1559 6.45775 28.6813 7.92741 29.7752C9.39706 30.869 11.1716 31.4767 13.0032 31.5135C9.89359 33.9562 6.05227 35.2811 2.09797 35.2748C1.39671 35.2738 0.696134 35.2308 0 35.1461C4.01715 37.7233 8.69016 39.0921 13.4629 39.0896Z" fill="#DC04B9"/>
</g>
<defs>
<clipPath id="clip0_1_222">
<rect width="42.7952" height="42.7952" fill="white" transform="translate(0 0.306396)"/>
</clipPath>
</defs>
</svg>
