<svg width="41" height="40" viewBox="0 0 41 40" fill="none" xmlns="http://www.w3.org/2000/svg">
<g clip-path="url(#clip0_1_279)">
<path d="M13.0801 36.2734C28.0765 36.2734 36.2811 23.8461 36.2811 13.0724C36.2811 12.7231 36.2733 12.366 36.2578 12.0166C37.8539 10.8624 39.2312 9.43266 40.3252 7.7947C38.8387 8.45605 37.2605 8.88797 35.6445 9.07571C37.3461 8.05575 38.6201 6.45343 39.2305 4.56579C37.6297 5.51448 35.8791 6.18369 34.0537 6.54475C32.8238 5.23789 31.1976 4.37259 29.4265 4.08264C27.6555 3.79269 25.8383 4.09423 24.2558 4.94065C22.6734 5.78707 21.4138 7.13122 20.6719 8.76529C19.93 10.3994 19.747 12.2323 20.1513 13.9808C16.9099 13.8181 13.739 12.9761 10.8439 11.5093C7.94886 10.0426 5.39437 7.98375 3.34605 5.46638C2.30498 7.2613 1.98641 9.38528 2.45509 11.4066C2.92377 13.428 4.14452 15.1951 5.86924 16.3487C4.57442 16.3076 3.30797 15.959 2.17451 15.3317V15.4326C2.17335 17.3162 2.82454 19.1422 4.0174 20.6C5.21025 22.0578 6.87114 23.0575 8.71773 23.4292C7.51829 23.7574 6.25942 23.8052 5.03853 23.5689C5.5596 25.1889 6.57343 26.6057 7.9385 27.6217C9.30358 28.6377 10.9518 29.2022 12.6531 29.2364C9.76477 31.5053 6.1968 32.7359 2.52388 32.7301C1.87251 32.7291 1.22179 32.6891 0.575195 32.6105C4.30649 35.0043 8.64698 36.2757 13.0801 36.2734Z" fill="white"/>
</g>
<defs>
<clipPath id="clip0_1_279">
<rect width="39.75" height="39.75" fill="white" transform="translate(0.575195 0.25)"/>
</clipPath>
</defs>
</svg>
