<svg width="50" height="50" viewBox="0 0 50 50" fill="none" xmlns="http://www.w3.org/2000/svg">
<path d="M30.8924 20.4759C32.4552 18.9131 33.3332 16.7935 33.3332 14.5833C33.3332 12.3732 32.4552 10.2536 30.8924 8.69078C29.3296 7.12797 27.21 6.25 24.9998 6.25C22.7897 6.25 20.6701 7.12797 19.1073 8.69078C17.5445 10.2536 16.6665 12.3732 16.6665 14.5833C16.6665 16.7935 17.5445 18.9131 19.1073 20.4759C20.6701 22.0387 22.7897 22.9167 24.9998 22.9167C27.21 22.9167 29.3296 22.0387 30.8924 20.4759Z" stroke="black" stroke-width="3" stroke-linecap="round" stroke-linejoin="round"/>
<path d="M14.6879 33.438C17.4228 30.7031 21.1321 29.1667 24.9998 29.1667C28.8676 29.1667 32.5769 30.7031 35.3118 33.438C38.0467 36.1729 39.5832 39.8823 39.5832 43.75H10.4165C10.4165 39.8823 11.953 36.1729 14.6879 33.438Z" stroke="black" stroke-width="3" stroke-linecap="round" stroke-linejoin="round"/>
</svg>
