<svg width="50" height="50" viewBox="0 0 50 50" fill="none" xmlns="http://www.w3.org/2000/svg">
<path d="M30.8926 20.4759C32.4554 18.9131 33.3334 16.7935 33.3334 14.5833C33.3334 12.3732 32.4554 10.2536 30.8926 8.69078C29.3298 7.12797 27.2102 6.25 25.0001 6.25C22.7899 6.25 20.6703 7.12797 19.1075 8.69078C17.5447 10.2536 16.6667 12.3732 16.6667 14.5833C16.6667 16.7935 17.5447 18.9131 19.1075 20.4759C20.6703 22.0387 22.7899 22.9167 25.0001 22.9167C27.2102 22.9167 29.3298 22.0387 30.8926 20.4759Z" stroke="white" stroke-width="2" stroke-linecap="round" stroke-linejoin="round"/>
<path d="M14.6881 33.438C17.423 30.7031 21.1323 29.1667 25.0001 29.1667C28.8678 29.1667 32.5772 30.7031 35.3121 33.438C38.047 36.1729 39.5834 39.8823 39.5834 43.75H10.4167C10.4167 39.8823 11.9532 36.1729 14.6881 33.438Z" stroke="white" stroke-width="2" stroke-linecap="round" stroke-linejoin="round"/>
</svg>
