<svg width="50" height="50" viewBox="0 0 50 50" fill="none" xmlns="http://www.w3.org/2000/svg">
<path fill-rule="evenodd" clip-rule="evenodd" d="M45 25C45 30.3043 42.8929 35.3914 39.1421 39.1421C35.3914 42.8929 30.3043 45 25 45C19.6957 45 14.6086 42.8929 10.8579 39.1421C7.10714 35.3914 5 30.3043 5 25C5 19.6957 7.10714 14.6086 10.8579 10.8579C14.6086 7.10714 19.6957 5 25 5C30.3043 5 35.3914 7.10714 39.1421 10.8579C42.8929 14.6086 45 19.6957 45 25ZM30 17.5C30 18.8261 29.4732 20.0979 28.5355 21.0355C27.5979 21.9732 26.3261 22.5 25 22.5C23.6739 22.5 22.4021 21.9732 21.4645 21.0355C20.5268 20.0979 20 18.8261 20 17.5C20 16.1739 20.5268 14.9021 21.4645 13.9645C22.4021 13.0268 23.6739 12.5 25 12.5C26.3261 12.5 27.5979 13.0268 28.5355 13.9645C29.4732 14.9021 30 16.1739 30 17.5ZM25 27.5C22.6065 27.4995 20.2632 28.1862 18.2485 29.4785C16.2339 30.7708 14.6326 32.6143 13.635 34.79C15.0417 36.4265 16.7857 37.7394 18.7474 38.6387C20.709 39.538 22.842 40.0024 25 40C27.158 40.0024 29.291 39.538 31.2526 38.6387C33.2143 37.7394 34.9583 36.4265 36.365 34.79C35.3674 32.6143 33.7661 30.7708 31.7515 29.4785C29.7368 28.1862 27.3935 27.4995 25 27.5Z" fill="white"/>
</svg>
