<svg width="26" height="24" viewBox="0 0 26 24" fill="none" xmlns="http://www.w3.org/2000/svg">
<path d="M18.3724 15.0943H17.2113L16.7998 14.7238C18.2402 13.1595 19.1073 11.1286 19.1073 8.91938C19.1073 3.99314 14.8302 0 9.55367 0C4.2771 0 0 3.99314 0 8.91938C0 13.8456 4.2771 17.8388 9.55367 17.8388C11.92 17.8388 14.0953 17.0292 15.7709 15.6844L16.1677 16.0686V17.1527L23.5167 24L25.7067 21.9554L18.3724 15.0943ZM9.55367 15.0943C5.89388 15.0943 2.93959 12.3362 2.93959 8.91938C2.93959 5.50257 5.89388 2.74443 9.55367 2.74443C13.2135 2.74443 16.1677 5.50257 16.1677 8.91938C16.1677 12.3362 13.2135 15.0943 9.55367 15.0943Z" fill="white"/>
</svg>
